<svg xmlns="http://www.w3.org/2000/svg" viewBox="0 0 64 64"><polygon points="20.00,19.50 44.00,19.50 49.00,3.50 15.00,3.50" fill="#F2B900" stroke="#F2B900" stroke-width="2" stroke-linejoin="round" transform="rotate(0 32 32)"/><polygon points="20.00,19.50 44.00,19.50 49.00,3.50 15.00,3.50" fill="#E65F45" stroke="#E65F45" stroke-width="2" stroke-linejoin="round" transform="rotate(90 32 32)"/><polygon points="20.00,19.50 44.00,19.50 49.00,3.50 15.00,3.50" fill="#7CC1CA" stroke="#7CC1CA" stroke-width="2" stroke-linejoin="round" transform="rotate(180 32 32)"/><polygon points="20.00,19.50 44.00,19.50 49.00,3.50 15.00,3.50" fill="#4B32C8" stroke="#4B32C8" stroke-width="2" stroke-linejoin="round" transform="rotate(270 32 32)"/><rect x="20" y="20" width="24" height="24" rx="4" fill="#FFFFFF"/><ellipse cx="32" cy="11.5" rx="6" ry="3.6" fill="none" stroke="#FFFFFF" stroke-width="1.8"/><circle cx="32" cy="11.5" r="1.7" fill="#FFFFFF"/><rect x="49" y="30" width="2.2" height="4" rx="1.1" fill="#FFFFFF"/><rect x="52.4" y="27" width="2.2" height="10" rx="1.1" fill="#FFFFFF"/><rect x="55.8" y="29" width="2.2" height="6" rx="1.1" fill="#FFFFFF"/><path d="M36 52.5a4 4 0 1 1-1.2-2.9" fill="none" stroke="#FFFFFF" stroke-width="1.8" stroke-linecap="round"/><path d="M35.8 47.2l-.6 2.9 2.9.4" fill="none" stroke="#FFFFFF" stroke-width="1.6" stroke-linecap="round" stroke-linejoin="round"/><path d="M9 27.5l7.5 4.2-3.2 1 1.7 3.2-1.6.8-1.7-3.2-2.3 2.3z" fill="#FFFFFF"/><circle cx="32" cy="32" r="4" fill="#F2B900"/></svg>
