<svg xmlns="http://www.w3.org/2000/svg" viewBox="0 0 64 64"><path d="M14 27V44a10 10 0 0 0 10 10h16a10 10 0 0 0 10-10V27h-9v16a3 3 0 0 1-3 3H26a3 3 0 0 1-3-3V27z" fill="#FFFFFF"/><polygon points="14,27 23,27 15,14 5,16" fill="#E65F45" stroke="#E65F45" stroke-width="2" stroke-linejoin="round"/><polygon points="41,27 50,27 59,16 49,14" fill="#7CC1CA" stroke="#7CC1CA" stroke-width="2" stroke-linejoin="round"/><path d="M32 4l2.6 8.2L43 15l-8.4 2.8L32 26l-2.6-8.2L21 15l8.4-2.8z" fill="#F2B900" stroke="#F2B900" stroke-width="1.2" stroke-linejoin="round"/></svg>
