<svg xmlns="http://www.w3.org/2000/svg" viewBox="0 0 64 64"><line x1="2" y1="58" x2="62" y2="58" stroke="#1B164B" stroke-width="2.4" stroke-linecap="round" opacity=".35"/><path d="M9 37 Q32 2 55 29" fill="none" stroke="#F2B900" stroke-width="4" stroke-linecap="round"/><rect x="2" y="38" width="13" height="17" rx="2.5" fill="#7CC1CA"/><rect x="5" y="42" width="7" height="2" rx="1" fill="#FFFFFF"/><rect x="5" y="46.5" width="5" height="2" rx="1" fill="#FFFFFF"/><circle cx="55" cy="36" r="4.6" fill="#E65F45"/><path d="M47.5 55a7.5 8 0 0 1 15 0z" fill="#E65F45"/><polygon points="32.00,13.50 39.36,17.75 32.00,22.00 24.64,17.75" fill="#4B32C8" /><polygon points="24.64,17.75 32.00,22.00 32.00,30.50 24.64,26.25" fill="#1B164B" /><polygon points="32.00,22.00 39.36,17.75 39.36,26.25 32.00,30.50" fill="#29245F" /></svg>
