<svg xmlns="http://www.w3.org/2000/svg" viewBox="0 0 64 64"><line x1="32.0" y1="33.0" x2="32.0" y2="12.0" stroke="#1B164B" stroke-width="2.2" stroke-linecap="round" opacity="0.5"/><line x1="32.0" y1="33.0" x2="52.0" y2="26.5" stroke="#1B164B" stroke-width="2.2" stroke-linecap="round" opacity="0.5"/><line x1="32.0" y1="33.0" x2="44.3" y2="50.0" stroke="#1B164B" stroke-width="2.2" stroke-linecap="round" opacity="0.5"/><line x1="32.0" y1="33.0" x2="19.7" y2="50.0" stroke="#1B164B" stroke-width="2.2" stroke-linecap="round" opacity="0.5"/><line x1="32.0" y1="33.0" x2="12.0" y2="26.5" stroke="#1B164B" stroke-width="2.2" stroke-linecap="round" opacity="0.5"/><circle cx="32.0" cy="12.0" r="8" fill="#F2B900"/><rect x="28.5" y="9.0" width="7" height="1.6" rx=".8" fill="#FFFFFF"/><rect x="28.5" y="11.7" width="7" height="1.6" rx=".8" fill="#FFFFFF"/><rect x="28.5" y="14.4" width="4.5" height="1.6" rx=".8" fill="#FFFFFF"/><circle cx="52.0" cy="26.5" r="8" fill="#E65F45"/><rect x="47.97218684219823" y="25.010643118126104" width="1.8" height="3" rx=".9" fill="#FFFFFF"/><rect x="51.07218684219823" y="22.510643118126104" width="1.8" height="8" rx=".9" fill="#FFFFFF"/><rect x="54.17218684219823" y="24.010643118126104" width="1.8" height="5" rx=".9" fill="#FFFFFF"/><circle cx="44.3" cy="50.0" r="8" fill="#7CC1CA"/><ellipse cx="44.34349029814194" cy="49.989356881873896" rx="4.4" ry="2.7" fill="none" stroke="#FFFFFF" stroke-width="1.4"/><circle cx="44.34349029814194" cy="49.989356881873896" r="1.3" fill="#FFFFFF"/><circle cx="19.7" cy="50.0" r="8" fill="#4B32C8"/><rect x="15.656509701858067" y="46.78935688187389" width="8" height="5.4" rx="2" fill="#FFFFFF"/><polygon points="17.656509701858067,51.989356881873896 20.156509701858067,51.989356881873896 17.456509701858067,54.1893568818739" fill="#FFFFFF"/><circle cx="12.0" cy="26.5" r="8" fill="#B9A8FF"/><path d="M9.027813157801774 22.510643118126108l6 3.4-2.6.8 1.4 2.6-1.3.7-1.4-2.6-2 1.9z" fill="#FFFFFF"/><circle cx="32.0" cy="33.0" r="6.5" fill="#1B164B"/><circle cx="32.0" cy="33.0" r="2.6" fill="#F2B900"/></svg>
